<svg version="1.1" xmlns="http://www.w3.org/2000/svg" xmlns:xlink="http://www.w3.org/1999/xlink" width="200" height="183" viewBox="0,0,256,234.23438"><defs><clipPath id="clip-1"><path d="M170.99,80.4h29.057v29.82h-29.057z" id="clip-1" fill="none"></path></clipPath><clipPath id="clip-2"><path d="M0,44.55h66.923v41.177h-66.923z" id="clip-2" fill="none"></path></clipPath></defs><g fill="none" fill-rule="nonzero" stroke="none" stroke-width="1" stroke-linecap="butt" stroke-linejoin="miter" stroke-miterlimit="none" stroke-dasharray="" stroke-dashoffset="0" font-family="none" font-weight="none" font-size="none" text-anchor="none" style="mix-blend-mode: normal"><g transform="translate(0,-0.00281) scale(1,1.00002)"><g><g transform="translate(-0.03008,0.34608) scale(1.28,1.28)"><g><g><g fill-opacity="0" fill="#000000" stroke="none" stroke-miterlimit="10"><path d="M152.76,10.15c-35.287,-9.343 -68.663,-4.902 -97.994,16c-29.331,20.903 -34.187,37.84 -25.197,52.496c8.989,14.656 8.557,29.105 2.085,43.302c-6.473,14.198 3.572,53.465 70.039,54.435c66.466,0.97 94.011,-32.372 90.738,-51.962c-3.274,-19.59 -18.544,-22.106 -4.384,-60.188c14.16,-38.082 0,-44.739 -35.287,-54.082z"></path></g><g stroke="none" stroke-miterlimit="10"><g fill="#000000" font-family="Inter, apple-system, &quot;system-ui&quot;, &quot;Helvetica Neue&quot;, &quot;Segoe UI&quot;, &quot;Fira Sans&quot;, Roboto, Oxygen, Ubuntu, &quot;Droid Sans&quot;, Arial, sans-serif" font-weight="400" font-size="16" text-anchor="start"></g><g clip-path="url(#clip-1)"><path d="M182.393,82.219c-3.199,1.12 -6.036,3.154 -8.013,5.92c-3.358,4.693 -3.869,11.42 -3.043,16.98c0.25,1.675 0.75,3.745 2.328,4.667c2.618,1.532 5.386,-1.365 7.181,-2.867c3.853,-3.223 7.55,-6.642 10.914,-10.377c2.763,-3.067 6.564,-6.978 7.956,-10.927c2.876,-8.162 -13.853,-4.612 -17.323,-3.396" fill="#231f20"></path></g></g><g fill="#231f20" stroke="none" stroke-miterlimit="10"><path d="M196.433,88.478c-3.474,5.036 -7.677,9.535 -12.181,13.66c-1.989,1.82 -4.023,3.646 -6.162,5.287c-1.276,0.978 -2.978,1.64 -4.117,0.132c-1.231,-1.628 -1.438,-3.763 -1.438,-5.739c0,-2.022 -0.053,-4.218 0.192,-6.221c0.104,-0.846 0.277,-1.683 0.528,-2.497c0.127,-0.414 0.274,-0.822 0.44,-1.223c0.125,-0.302 0.569,-0.89 0.569,-1.201c1.576,-2.953 4.165,-5.265 7.213,-6.626c0.416,-0.186 0.877,-0.308 1.283,-0.51c3.254,-1.143 6.787,-1.58 10.222,-1.635c1.195,-0.019 2.933,-0.238 4.01,0.252c3.44,1.57 0.596,4.645 -0.56,6.321"></path></g><g fill="none" stroke="#231f20" stroke-miterlimit="20"><path d="M196.433,88.478c-3.474,5.036 -7.677,9.535 -12.181,13.66c-1.989,1.82 -4.023,3.646 -6.162,5.287c-1.276,0.978 -2.978,1.64 -4.117,0.132c-1.231,-1.628 -1.438,-3.763 -1.438,-5.739c0,-2.022 -0.053,-4.218 0.192,-6.221c0.104,-0.846 0.277,-1.683 0.528,-2.497c0.127,-0.414 0.274,-0.822 0.44,-1.223c0.125,-0.302 0.569,-0.89 0.569,-1.201c1.576,-2.953 4.165,-5.265 7.213,-6.626c0.416,-0.186 0.877,-0.308 1.283,-0.51c3.254,-1.143 6.787,-1.58 10.222,-1.635c1.195,-0.019 2.933,-0.238 4.01,0.252c3.44,1.57 0.596,4.645 -0.56,6.321z"></path></g><g fill="#231f20" stroke="none" stroke-miterlimit="10"><path d="M139.784,123.97c-0.00585,-0.26986 -0.17714,-0.5083 -0.431,-0.6c1.235,-3.087 0.105,-6.804 -3.637,-8.928c-4.006,-2.277 -9.425,-1.976 -13.855,-2.046c-3.768,-0.059 -7.539,0.043 -11.3,0.288c-3.569,0.232 -7.074,0.737 -10.658,0.74c-2.227,0.002 -4.486,0.198 -6.657,0.707c-4.336,1.017 -8.182,3.648 -8.255,8.494c-0.023,1.469 0.302,2.645 0.875,3.594c-0.027,0.053 -0.059,0.099 -0.073,0.166c-0.838,3.948 -0.356,7.862 0.017,11.843l1.188,12.696c0.404,4.318 0.665,8.65 1.168,12.959c0.414,3.544 -0.48,9.49 3.39,11.452c1.565,0.794 3.44,0.685 5.141,0.849c1.903,0.182 3.8,0.408 5.706,0.551c4.385,0.328 8.91,0.64 13.308,0.434c6.43099,-0.3015 12.81858,-1.21564 19.076,-2.73c3.01,-0.727 4.288,-1.8 4.198,-5.06c-0.144,-5.293 0.515,-10.672 0.738,-15.976c0.412,-9.804 0.518,-19.627 0.061,-29.432"></path></g><g fill="#fefefe" stroke="none" stroke-miterlimit="10"><path d="M136.318,171.591c-1.417,0.935 -2.86,2 -4.958,2.358c-1.703,0.29 -3.415,0.525 -5.121,0.79c-3.857,0.598 -7.75,0.97 -11.65,1.112c-4.06,0.148 -8.129,0.012 -12.176,-0.35c-2.07,-0.184 -4.133,-0.428 -6.19,-0.722c-1.909,-0.272 -4.527,-0.374 -5.574,-2.355c-1.394,-2.639 -0.898,-6.46 -1.212,-9.341c-0.44,-4.045 -0.686,-8.107 -1.065,-12.158l-1.063,-11.36c-0.374,-3.998 -0.989,-8.032 -0.324,-12.017c3.69,3.235 11.619,2.36 15.93,2.418c5.653,0.075 11.309,-0.052 16.952,-0.38c4.777,-0.276 10.438,-0.069 14.953,-1.896c1.583,-0.64 2.797,-1.596 3.638,-2.72c-0.557,0.744 0.166,4.478 0.195,5.48c0.055,2.029 0.091,4.058 0.11,6.087c0.039,4.058 0.002,8.116 -0.107,12.172c-0.157,5.794 0.122,21.257 -2.338,22.882"></path></g><g fill="#d2dde2" stroke="none" stroke-miterlimit="10"><path d="M137.579,168.755c-13.006,2.9 -28.254,4.907 -37.295,-7.194c-6.824,-9.132 -7.045,-20.666 -6.203,-31.663c-2.754,-0.236 -5.382,-0.846 -7.096,-2.348c-0.665,3.984 -0.05,8.018 0.324,12.016l1.064,11.36c0.379,4.052 0.624,8.114 1.064,12.158c0.315,2.881 -0.182,6.703 1.212,9.341c1.047,1.981 3.666,2.083 5.574,2.356c2.05663,0.29503 4.12068,0.53578 6.19,0.722c4.047,0.361 8.115,0.496 12.175,0.348c3.901,-0.142 7.794,-0.513 11.65,-1.111c1.708,-0.265 3.419,-0.5 5.122,-0.79c2.1,-0.357 3.542,-1.423 4.958,-2.357c0.542,-0.359 0.95,-1.389 1.26,-2.838"></path></g><g fill="#6398e3" stroke="none" stroke-miterlimit="10"><path d="M137.027,124.704c-3.419,3.438 -9.98,3.028 -14.458,3.339c-9.247,0.642 -18.537,0.754 -27.797,0.304c-2.295,-0.112 -5.27,-0.025 -7.022,-1.813c-1.923,-1.964 -1.695,-5.28 -0.267,-7.401c1.978,-2.94 5.25,-3.924 8.621,-4.178c10.983,-0.831 22.195,-1.977 33.19,-0.862c4.72,0.478 13.378,4.935 7.733,10.611"></path></g><g fill="#231f20" stroke="none" stroke-miterlimit="10"><path d="M158.25,45.237c-0.007,-3.09 -0.67,-6.213 -1.424,-9.185c-0.88225,-3.45714 -2.17828,-6.79525 -3.86,-9.942c-0.02,-0.036 -0.048,-0.054 -0.07,-0.084c-0.136,-0.181 0.778,-3.089 0.815,-3.562c0.09,-1.133 -0.304,-2.316 0.28,-3.303c0.97,-1.635 0.436,-4.025 -0.803,-5.386c-0.719,-0.789 -1.871,-1.076 -2.748,-0.53c-0.1,-0.213 -0.206,-0.411 -0.326,-0.585c-0.636,-0.918 -1.91,-1.301 -2.835,-0.734c-0.246,-1.243 -0.753,-2.482 -1.919,-3.08c-1.182,-0.608 -2.526,-0.174 -3.087,0.94c-0.37,-0.414 -0.833,-0.715 -1.414,-0.807c-1.796,-0.287 -2.767,1.41 -2.315,2.918c-0.128,0.967 -0.169,2.094 0.143,3.027l-6.58,-0.919c-0.11921,-0.16729 -0.3234,-0.25192 -0.526,-0.218l-3.452,0.368c-0.682,0.073 -0.92,0.868 -0.345,1.276l2.517,1.786c0.219,0.155 0.433,0.153 0.607,0.061l4.91,0.928c-0.006,0.008 -0.013,0.012 -0.018,0.02c-1.001,1.366 -0.248,3.041 0.487,4.333c1.07,1.883 2.389,3.604 3.853,5.193c1.063,5.024 1.623,12.058 -3.252,14.254c-0.20659,-0.00546 -0.40654,0.07322 -0.554,0.218c-0.823,0.286 -1.777,0.451 -2.89,0.465c-5.112,0.06 -10.416,-0.937 -15.513,-1.5c-0.24,-0.185 -0.586,-0.217 -0.832,-0.046c-0.368,0.093 -0.495,0.508 -0.375,0.857c-1.68,6.809 -3.214,15.36 2.713,20.612c2.438,2.16 5.68,2.725 8.839,2.684c4.38533,-0.06882 8.75302,-0.57228 13.039,-1.503c3.673,-0.801 7.274,-2.248 10.24,-4.598c2.555,-2.026 4.573,-4.879 5.709,-7.974c0.715,-1.946 0.991,-3.958 0.987,-5.984"></path></g><g fill="#fefefe" stroke="none" stroke-miterlimit="10"><path d="M130.479,15.672l-0.49,-0.347l0.613,-0.066l-0.123,0.413"></path></g><g fill="#fefefe" stroke="none" stroke-miterlimit="10"><path d="M150.892,14.624c0.025,-0.02 0.052,-0.028 0.074,-0.054c1.048,-1.188 1.956,1.494 2.08,2.142c0.14,0.732 0.109,1.572 -0.446,2.14c-0.65,0.669 -1.807,0.431 -1.69,-0.609c0.02528,-0.16122 -0.02235,-0.32535 -0.13,-0.448c0.058,-0.134 0.112,-0.27 0.149,-0.41c0.202,-0.768 0.17,-1.797 -0.037,-2.76"></path></g><g fill="#fefefe" stroke="none" stroke-miterlimit="10"><path d="M147.472,13.469c0.12867,-0.02799 0.24419,-0.09843 0.328,-0.2c1.235,-1.467 1.89,2.566 1.878,3.159c-0.022,1.043 -0.862,2.096 -1.842,1.148c-0.568,-0.549 -0.441,-1.71 -0.412,-2.42c0.00547,-0.11971 -0.02369,-0.23845 -0.084,-0.342c0.105,-0.438 0.144,-0.897 0.132,-1.345"></path></g><g fill="#fefefe" stroke="none" stroke-miterlimit="10"><path d="M143.412,10.604c0.524,-1.957 2.132,0.251 2.328,0.803c0.145,0.41 0.22,0.853 0.285,1.28c0.09,0.582 0.195,1.396 -0.027,1.969c-0.652,1.677 -1.99,0.527 -2.482,-0.515c0.028,-0.225 0.037,-0.45 0.024,-0.67c-0.043,-0.72 -0.198,-1.621 -0.52,-2.43c0.19678,-0.06908 0.34463,-0.2339 0.392,-0.437"></path></g><g fill="#fefefe" stroke="none" stroke-miterlimit="10"><path d="M142.88,15.79c0.334,0.456 0.746,0.833 1.234,1.035c-0.08337,0.1871 -0.07184,0.40285 0.031,0.58c0.326,0.6 -0.575,0.674 -1.555,0.6l-0.06,-1.82c0.126,-0.12 0.246,-0.25 0.35,-0.395"></path></g><g fill="#fefefe" stroke="none" stroke-miterlimit="10"><path d="M139.83,11.519c-0.004,-0.01 -0.002,-0.02 -0.006,-0.03l0.461,-1.139l0.836,0.223c0.338,0.244 0.506,0.74 0.638,1.114c0.22,0.616 0.418,1.37 0.417,2.04c-0.13123,0.16738 -0.15714,0.39435 -0.067,0.587c-0.156,0.523 -0.552,0.967 -1.014,1.02c-0.08381,-0.0605 -0.18146,-0.099 -0.284,-0.112l-0.295,-0.04c-0.08788,-0.05512 -0.16908,-0.12022 -0.242,-0.194c-0.753,-0.773 -0.517,-2.09 -0.369,-3.04c0.02189,-0.14735 -0.00441,-0.29782 -0.075,-0.429"></path></g><g fill="#fefefe" stroke="none" stroke-miterlimit="10"><path d="M131.79,16.055l0.207,-0.695l7.96,1.11c0.16,0.083 0.332,0.157 0.525,0.212c0.22678,0.06495 0.4622,0.09463 0.698,0.088l0.035,1.064c-0.22047,-0.03656 -0.44018,-0.07757 -0.659,-0.123l-3.153,-0.595l-5.613,-1.06"></path></g><g fill="#6398e3" stroke="none" stroke-miterlimit="10"><path d="M132.097,63.678c-3.384,0.309 -7.131,0.702 -10.232,-1.018c-7.182,-3.984 -5.483,-13.49 -3.866,-20.1c4.224,0.442 8.444,0.915 12.67,1.313c1.808,0.17 3.66,0.302 5.387,-0.098c-0.372,6.579 0.81,12.94 3.47,18.985c-2.455,0.446 -4.952,0.693 -7.43,0.918"></path></g><g fill="#fefefe" stroke="none" stroke-miterlimit="10"><path d="M156.72,47.897c-1.355,7.175 -6.399,11.864 -13.246,13.93c-0.852,0.256 -1.716,0.471 -2.585,0.66c-2.755,-6.094 -3.884,-12.526 -3.435,-19.179c0.45,-0.19922 0.87743,-0.44596 1.275,-0.736c4.833,-3.548 3.8,-10.178 2.723,-15.237c-0.013,-0.06 -0.041,-0.099 -0.064,-0.145c-0.004,-0.017 -0.014,-0.033 -0.02,-0.049c-0.02,-0.033 -0.037,-0.068 -0.06,-0.096c-0.025,-0.041 -0.04,-0.086 -0.077,-0.126c-1.364,-1.466 -2.604,-3.048 -3.607,-4.785c-0.274,-0.476 -0.64,-1.006 -0.787,-1.534c-0.204,-0.73 -0.1,-1.83 0.869,-1.975c0.084,-0.011 0.164,-0.015 0.243,-0.012c0.129,0.026 0.256,0.051 0.386,0.081c0.978,0.362 1.528,1.888 1.832,2.708c0.09648,0.2756 0.356,0.46063 0.648,0.462c0.10345,0.02457 0.2111,0.0256 0.315,0.003c0.773,-0.17 1.494,0.039 2.117,0.511c0.703,0.531 1.386,-0.657 0.69,-1.182c-0.774,-0.586 -1.72,-0.817 -2.666,-0.725c-0.16304,-0.42569 -0.35516,-0.83967 -0.575,-1.239c0.825,0.174 1.65,0.309 2.45,0.326c1.659,0.034 3.013,-1.03 2.28,-2.646c0.042,-0.012 0.083,-0.014 0.128,-0.028c0.204,-0.062 0.386,-0.146 0.552,-0.244c0.14,1.129 0.575,2.202 1.751,2.635c0.641,0.235 1.26,0.13 1.782,-0.17c0.32149,0.95809 1.23949,1.58669 2.249,1.54c0.166,-0.01 0.321,-0.041 0.473,-0.086c0.16042,1.78036 -0.12018,3.57283 -0.817,5.219c-0.137,0.324 -0.021,0.625 0.182,0.823c0.013,0.065 0.023,0.13 0.059,0.198c3.422,6.415 5.102,13.364 5.012,20.587c-0.028,0.17 -0.044,0.341 -0.076,0.511"></path></g><g fill="#231f20" stroke="none" stroke-miterlimit="10"><path d="M131.688,98.694c-1.146,-3.636 -2.958,-7.199 -4.379,-10.747c-3.727,-9.302 -4.906,-19.593 -3.503,-29.516c0.582,-4.115 1.552,-8.538 -0.312,-12.253c-1.34,-2.669 -3.992,-4.502 -6.827,-5.44c-2.835,-0.94 -5.867,-1.084 -8.853,-1.105c-4.567,-0.033 -9.337,0.22 -13.72,1.758c-3.754,1.317 -7.287,3.677 -9.47,7.058c-2.369,3.667 -4.14,7.54 -5.302,11.78c-2.016,7.353 -2.314,15.1 -1.72,22.669c0.517,6.61 1.7,13.224 4.258,19.34c2.558,6.117 6.559,11.733 11.984,15.543c6.37,4.475 14.588,6.228 22.23,4.743c3.922,-0.761 7.725,-2.37 10.76,-4.966c3.036,-2.597 5.259,-6.223 5.819,-10.178c0.42,-2.959 -0.07,-5.845 -0.965,-8.686"></path></g><g fill="#6398e3" stroke="none" stroke-miterlimit="10"><path d="M130.75,109.72c-5.018,14.69 -26.051,14.393 -36.523,6.66c-11.789,-8.71 -15.08,-24.103 -15.363,-37.936c-0.169,-8.253 0.17,-17.01 3.876,-24.557c1.692,-3.448 4.19,-6.535 7.31,-8.79c3.284,-2.371 7.325,-3.156 11.274,-3.575c4.242,-0.45 8.716,-1.073 12.94,-0.21c2.269,0.463 4.387,1.466 6.05,3.097c0.916,0.898 1.64,1.974 2.167,3.143c1.679,3.738 0.403,7.889 -0.126,11.744c-0.4428,3.23157 -0.60208,6.49567 -0.476,9.755c0.26285,6.66875 1.6981,13.2391 4.24,19.41c2.71,6.58 7.136,13.918 4.63,21.258"></path></g><g fill="#231f20" stroke="none" stroke-miterlimit="10"><path d="M96.768,33.67c-0.383,-2.306 -2.075,-4.435 -4.634,-4.069c-2.571,0.368 -4.205,2.886 -3.689,5.39c0.5,2.42 2.917,4.264 5.413,3.759c2.437,-0.493 3.276,-2.869 2.91,-5.08"></path></g><g fill="#fefefe" stroke="none" stroke-miterlimit="10"><path d="M93.06,37.242c-1.541,0.016 -2.824,-1.187 -3.093,-2.67c-0.15729,-0.82991 0.07071,-1.68635 0.61982,-2.32821c0.54911,-0.64186 1.35992,-0.9997 2.20418,-0.97279c3.142,0.056 3.645,5.937 0.269,5.971"></path></g><g fill="#231f20" stroke="none" stroke-miterlimit="10"><path d="M127.557,29.038c-0.382,-2.305 -2.074,-4.433 -4.633,-4.067c-2.572,0.368 -4.205,2.885 -3.689,5.39c0.5,2.42 2.917,4.263 5.413,3.759c2.437,-0.493 3.276,-2.869 2.909,-5.082"></path></g><g fill="#fefefe" stroke="none" stroke-miterlimit="10"><path d="M123.849,32.603c-1.54,0.016 -2.823,-1.188 -3.092,-2.67c-0.32,-1.764 1.022,-3.336 2.824,-3.302c3.14,0.056 3.645,5.938 0.268,5.972"></path></g><g fill="#231f20" stroke="none" stroke-miterlimit="10"><path d="M110.797,40.098c-3.175,-3.582 -8.134,-3.923 -12.335,-2.126c-0.376,0.16 -0.418,0.5 -0.283,0.784c-0.03,0.05 -0.064,0.094 -0.08,0.16c-1.228,4.49 -1.51,10.036 2.458,13.314c3.259,2.693 8.222,2.11 10.796,-1.213c2.555,-3.297 2.158,-7.856 -0.556,-10.919"></path></g><g fill="#d2dde2" stroke="none" stroke-miterlimit="10"><path d="M110.25,50.158c-2.684,3.352 -7.819,3.121 -10.193,-0.54c-2.027,-3.123 -1.564,-6.935 -0.634,-10.342c0.02001,-0.07697 0.02577,-0.15695 0.017,-0.236c3.3,-1.311 7.152,-1.094 9.833,1.44c2.673,2.524 3.354,6.71 0.976,9.678"></path></g><g fill="#231f20" stroke="none" stroke-miterlimit="10"><path d="M121.668,14.895c-3.063,-6.791 -11.002,-9.906 -17.96,-7.343c-4.18,1.54 -7.467,4.757 -9.28,8.805c-1.248,2.784 -1.658,5.865 -1.764,8.888c-0.101,2.882 -0.16,5.97 0.447,8.803c1.068,4.998 4.267,9.342 8.954,11.489c6.72,3.078 15.043,0.615 18.563,-6.007c1.81,-3.407 2.269,-7.373 2.575,-11.162c0.365,-4.534 0.37,-9.247 -1.535,-13.473"></path></g><g fill="#fefefe" stroke="none" stroke-miterlimit="10"><path d="M121.988,25.82c-0.329,8.475 -2.426,18.775 -12.685,19.683c-4.617,0.408 -8.917,-1.626 -11.678,-5.321c-3.787,-5.07 -4.413,-13.058 -3.216,-19.115c0.426,-2.161 1.21,-4.26 2.365,-6.139c2.386,-3.882 6.328,-6.51 10.907,-6.877c10.439,-0.84 14.653,8.86 14.307,17.769"></path></g><g fill="#fefefe" stroke="none" stroke-miterlimit="10"><path d="M121.988,25.82c-0.329,8.475 -2.426,18.775 -12.685,19.683c-4.617,0.408 -8.917,-1.626 -11.678,-5.321c-3.787,-5.07 -4.413,-13.058 -3.216,-19.115c0.426,-2.161 1.21,-4.26 2.365,-6.139c2.386,-3.882 6.328,-6.51 10.907,-6.877c10.439,-0.84 14.653,8.86 14.307,17.769"></path></g><g fill="#d2dde2" stroke="none" stroke-miterlimit="10"><path d="M107.679,8.05c-4.58,0.37 -8.521,2.996 -10.907,6.88c-1.155,1.877 -1.94,3.977 -2.365,6.137c-0.619,3.126 -0.746,6.765 -0.209,10.253c3.244,-2.024 5.872,-4.667 7.905,-7.924c1.45,2.361 3.536,4.877 6.58,4.383c1.827,-0.296 2.954,-1.687 3.041,-3.271c2.992,2.155 6.382,4.102 10.13,3.552c0.06,-0.755 0.104,-1.505 0.132,-2.24c0.346,-8.908 -3.87,-18.609 -14.307,-17.77"></path></g><g fill="#231f20" stroke="none" stroke-miterlimit="10"><path d="M126.6,10.678c-2.71,-4.809 -9.406,-6.019 -14.598,-6.755c0.719,-0.575 1.239,-1.336 1.038,-2.345c-0.341,-1.702 -1.919,-1.669 -3.298,-1.341c-5.222,1.24 -9.68,4.746 -12.658,9.124c-3.208,0.435 -5.654,4.61 -6.629,7.218c-1.732,4.632 -0.894,9.543 1.795,13.608c0.12743,0.2048 0.35498,0.32545 0.596,0.316c0.127,0.473 0.715,0.812 1.125,0.343c3.368,-3.856 5.746,-8.403 6.675,-13.465c0.018,-0.091 0.035,-0.192 0.053,-0.29c1.142,3.096 3.203,5.692 6.114,7.618c0.438,0.29 1.054,-0.09 1.042,-0.598c-0.03302,-1.75635 -0.33381,-3.49738 -0.892,-5.163c4.32749,3.19441 9.32429,5.36369 14.613,6.344c0.246,0.225 0.612,0.285 0.883,-0.05c3.186,-3.942 7.066,-9.372 4.14,-14.564"></path></g><g fill="#231f20" stroke="none" stroke-miterlimit="10"><path d="M98.112,21.42c-1.085,2.945 -2.71,5.582 -4.72,7.973c-1.741,-2.668 -2.708,-5.687 -2.437,-8.895c0.162,-1.893 0.769,-3.726 1.703,-5.374c0.623,-1.099 5.052,-7.656 7.034,-2.15c0.046,0.127 0.082,0.263 0.112,0.406c0.022,0.168 0.047,0.333 0.072,0.5c0.196,2.288 -1.118,5.785 -1.764,7.54"></path></g><g fill="#231f20" stroke="none" stroke-miterlimit="10"><path d="M121.759,23.915c-5.97,-1.15 -11.333,-3.687 -15.973,-7.645c-0.594,-0.506 -1.458,0.119 -1.088,0.84c0.935,1.817 1.472,3.614 1.678,5.569c-2.927,-2.346 -4.746,-5.592 -5.203,-9.406c-0.0131,-0.10962 -0.05144,-0.2147 -0.112,-0.307c-0.116,-1.63 -0.699,-3.063 -2.351,-3.512c1.595,-2.196 3.53,-4.066 5.86,-5.506c1.21289,-0.74859 2.49968,-1.3702 3.84,-1.855c0.375,-0.137 1.31,-0.614 1.703,-0.521c0.846,0.198 0.693,1.573 -0.253,2.028c-0.427,0.204 -0.423,0.634 -0.21,0.937c0.014,0.25 0.167,0.468 0.5,0.514c4.31,0.598 8.956,1.19 12.642,3.703c6.17,4.207 2.516,10.68 -1.033,15.16"></path></g><g fill="#231f20" stroke="none" stroke-miterlimit="10"><path d="M106.303,34.01c-0.727,0.465 -1.545,0.645 -2.396,0.468c-0.86,-0.178 -1.228,1.141 -0.365,1.32c1.204,0.25 2.412,0.06 3.452,-0.605c0.74,-0.473 0.054,-1.658 -0.691,-1.182"></path></g><g fill="#231f20" stroke="none" stroke-miterlimit="10"><path d="M117.626,31.714c-0.528,0.48 -1.218,0.563 -1.875,0.327c-0.83,-0.299 -1.188,1.024 -0.364,1.32c1.12,0.404 2.335,0.111 3.206,-0.679c0.654,-0.592 -0.316,-1.558 -0.967,-0.968"></path></g><g fill="#231f20" stroke="none" stroke-miterlimit="10"><path d="M112.451,31.86c-0.447,-0.76 -1.63,-0.071 -1.181,0.69c0.761,1.291 0.986,2.729 0.637,4.188c-0.204,0.856 1.115,1.22 1.32,0.364c0.434,-1.812 0.17,-3.635 -0.776,-5.243"></path></g><g fill="#231f20" stroke="none" stroke-miterlimit="10"><path d="M101.344,78.427c-0.34,-10.073 -2,-20.063 -4.265,-29.868c-0.393,-1.696 -0.737,-3.408 -1.17,-5.094c-0.11,-0.436 -0.235,-0.875 -0.467,-1.259c-0.67,-1.105 -2.311,-1.34 -3.41,-1.806c-1.446,-0.615 -2.962,-1.108 -4.523,-1.318c-3.081,-0.414 -6,0.55 -7.753,3.22c-0.304,0.463 -0.566,0.954 -0.79,1.46c-1.685,3.768 -1.742,8.436 -1.746,12.476c-0.004,4.88 0.573,9.77 1.71,14.516c1.65,6.873 4.593,17.424 12.707,19.052c7.299,1.464 9.91,-5.352 9.707,-11.379"></path></g><g fill="#6398e3" stroke="none" stroke-miterlimit="10"><path d="M99.03,84.98c-2.995,6.426 -10.566,3.193 -13.603,-1.284c-5.04,-7.428 -6.75,-18.052 -6.84,-26.831c-0.044,-4.263 -0.16,-9.573 2.034,-13.386c3.192,-5.543 9.426,-2.891 13.729,-0.399c0.003,0.027 -0.004,0.05 0.003,0.076c2.513,9.82 4.296,19.801 5.225,29.897c0.35,3.793 1.124,8.344 -0.548,11.928"></path></g><g fill="#231f20" stroke="none" stroke-miterlimit="10"><path d="M105.211,41.2c0.102,-0.729 -0.278,-1.52 -1.137,-1.846c-0.17133,-0.0642 -0.35007,-0.10653 -0.532,-0.126c0.188,-0.877 -0.254,-1.71 -1.57,-1.915c-0.61029,-0.08704 -1.23083,-0.07149 -1.836,0.046c0.312,-0.696 0.315,-1.447 -0.392,-2.105c-1.489,-1.383 -3.578,0.23 -4.605,1.348c-2.902,3.16 -3.09,7.529 -1.122,10.961c-2.76,10.389 -10.702,19.22 -10.478,30.31c-0.08194,0.11341 -0.11995,0.25269 -0.107,0.392c0.334,4.213 2.131,8.443 6.067,10.465c3.785,1.944 8.291,1.174 11.021,-2.118c3.25,-3.917 3.428,-9.673 3.864,-14.507c0.643,-7.136 0.694,-14.296 0.25,-21.444c1.04,-0.535 1.347,-1.718 1.42,-2.919c0.059,-0.972 -0.005,-1.516 0.668,-2.36c0.235,-0.295 0.54,-0.525 0.764,-0.83c0.385,-0.525 0.71,-1.148 0.62,-1.818c-0.192,-1.47 -1.66,-1.814 -2.895,-1.535"></path></g><g fill="#fefefe" stroke="none" stroke-miterlimit="10"><path d="M106.335,43.773c-0.176,0.232 -0.37,0.446 -0.582,0.644c-0.402,0.477 -0.756,0.933 -0.922,1.55c-0.276,1.033 0.29,3.269 -1.152,3.595c-0.473,0.107 -0.565,0.552 -0.418,0.901c0,0.016 -0.008,0.027 -0.006,0.044c0.57,9.037 0.438,18.213 -0.873,27.185c-0.662,4.528 -2.378,10.247 -7.814,10.676c-5.492,0.433 -8.87,-4.143 -9.64,-9.035c0.02657,-0.07983 0.03743,-0.16404 0.032,-0.248c-0.818,-11.087 6.986,-19.906 10.066,-30.069c0.35,0.42 0.731,0.822 1.158,1.191c0.662,0.574 1.635,-0.391 0.967,-0.969c-2.097,-1.813 -3.312,-4.186 -3.06,-7.02c0.09504,-1.20333 0.47038,-2.36771 1.096,-3.4c0.322,-0.58 0.725,-1.101 1.21,-1.564c2.634,-1.832 2.99,-0.01 1.372,0.987c-0.60248,0.33901 -1.16385,0.74637 -1.673,1.214c-0.645,0.6 0.323,1.568 0.968,0.968c0.836,-0.78 1.794,-1.335 2.911,-1.604c0.427,-0.103 1.115,-0.291 1.564,-0.173c0.515,-0.088 0.7,0.137 0.556,0.678c-0.107,0.113 -0.228,0.212 -0.347,0.312c-0.054,0.028 -0.11,0.055 -0.163,0.085c-1.176,0.653 -2.275,1.503 -3.392,2.25c-0.728,0.487 -0.044,1.675 0.69,1.183c0.819,-0.547 1.635,-1.095 2.453,-1.64c0.307,-0.206 0.616,-0.43 0.94,-0.611c0.27173,-0.17849 0.58118,-0.29146 0.904,-0.33c0.415,-0.068 1.54,0.056 0.172,1.408c-1.157,0.68 -2.195,1.637 -3.023,2.607c-0.57,0.667 0.395,1.639 0.968,0.968c0.744,-0.872 1.567,-1.64 2.552,-2.237c0.37,-0.226 1.066,-0.741 1.517,-0.752c1.238,0.29 1.561,0.691 0.969,1.206"></path></g><g fill="#231f20" stroke="none" stroke-miterlimit="10"><path d="M184.38,159.67c-5.53,-2.19 -11.694,-2.615 -17.48,-1.24c-2.384,0.566 -4.69,1.586 -6.17,3.623c-1.565,2.157 -3.162,4.49 -3.237,7.256c-0.01672,0.61727 0.04477,1.23417 0.183,1.836c0.708,3.09 3.293,4.598 6.287,4.868c5.457,0.49 11.476,-0.958 16.908,-1.545c3.69,-0.399 9.155,0.007 12.366,-2.213c6.617,-4.574 -5.371,-11.204 -8.856,-12.584"></path></g><g fill="#231f20" stroke="none" stroke-miterlimit="10"><path d="M191.57,171.552c-2.62,1.375 -6.502,1.095 -9.395,1.407l-10.356,1.12c-2.948,0.32 -6.648,1.239 -9.556,0.249c-1.852,-0.63 -3.325,-1.95 -3.426,-3.994c-0.094,-1.887 0.764,-3.76 1.683,-5.357c0.887,-1.54 1.687,-3.359 3.353,-4.211c1.949,-0.999 4.49,-1.366 6.643,-1.61c2.76502,-0.31312 5.56144,-0.2076 8.295,0.313c2.847,0.542 5.62,1.514 8.16,2.915c2.185,1.205 10.118,6.27 4.599,9.168"></path></g><g fill="none" stroke="#231f20" stroke-miterlimit="20"><path d="M191.57,171.552c-2.62,1.375 -6.502,1.095 -9.395,1.407l-10.356,1.12c-2.948,0.32 -6.648,1.239 -9.556,0.249c-1.852,-0.63 -3.325,-1.95 -3.426,-3.994c-0.094,-1.887 0.764,-3.76 1.683,-5.357c0.887,-1.54 1.687,-3.359 3.353,-4.211c1.949,-0.999 4.49,-1.366 6.643,-1.61c2.76502,-0.31312 5.56144,-0.2076 8.295,0.313c2.847,0.542 5.62,1.514 8.16,2.915c2.185,1.205 10.118,6.27 4.599,9.168z"></path></g><g fill="#231f20" stroke="none" stroke-miterlimit="10"><path d="M183.93,158.499v-0.006c-2.32215,-10.41535 -4.89187,-20.77395 -7.707,-31.067c-2.666,-9.733 -5.13,-19.816 -9.012,-29.15c-2.865,-6.885 -7.254,-13.572 -14.13,-16.977c-6.085,-3.014 -13.434,-2.591 -18.686,1.81c-0.284,-0.12 -0.633,-0.083 -0.838,0.256c-6.21848,10.26271 -10.62033,21.52106 -13.012,33.28c-0.05465,0.24875 0.03735,0.50688 0.237,0.665c-0.08,0.526 0.638,1.06 1.17,0.597c4.619,-4.001 11.508,-4.966 16.979,-2.079c5.367,2.83 7.83,8.763 9.802,14.163c4.288,11.746 7.472,23.879 9.706,36.176c0.01988,0.11112 0.07006,0.21458 0.145,0.299c0.06,0.274 0.263,0.502 0.632,0.476c8.705,-0.575 16.965,-3.165 24.425,-7.69c0.305,-0.185 0.366,-0.487 0.29,-0.753"></path></g><g fill="#fefefe" stroke="none" stroke-miterlimit="10"><path d="M154.283,142.526c-1.981,-6.745 -3.936,-13.949 -7.337,-20.147c-5.031,-9.168 -16.354,-12.62 -24.876,-6.301c2.37595,-11.17966 6.59089,-21.88748 12.473,-31.687c0.199,0.047 0.417,0.021 0.611,-0.147c6.912,-5.997 16.72,-3.661 22.856,2.221c5.99,5.74 8.747,13.785 11.137,21.518c5.13,16.594 9.549,33.406 13.35,50.352c-6.993,4.15 -14.674,6.585 -22.783,7.196c-1.419,-7.757 -3.208,-15.437 -5.431,-23.005"></path></g><g fill="#fefefe" stroke="none" stroke-miterlimit="10"><path d="M154.283,142.526c-1.981,-6.745 -3.936,-13.949 -7.337,-20.147c-5.031,-9.168 -16.354,-12.62 -24.876,-6.301c2.37595,-11.17966 6.59089,-21.88748 12.473,-31.687c0.199,0.047 0.417,0.021 0.611,-0.147c6.912,-5.997 16.72,-3.661 22.856,2.221c5.99,5.74 8.747,13.785 11.137,21.518c5.13,16.594 9.549,33.406 13.35,50.352c-6.993,4.15 -14.674,6.585 -22.783,7.196c-1.419,-7.757 -3.208,-15.437 -5.431,-23.005"></path></g><g fill="#d2dde2" stroke="none" stroke-miterlimit="10"><path d="M169.336,108.602c-0.063,-0.206 -0.124,-0.413 -0.188,-0.619c-2.39,-7.733 -5.147,-15.776 -11.137,-21.518c-6.136,-5.882 -15.945,-8.218 -22.856,-2.221c-0.16564,0.14854 -0.39489,0.20378 -0.61,0.147c-5.88265,9.79948 -10.09825,20.50727 -12.475,31.687c7.777,-5.766 17.884,-3.393 23.416,4.034c-0.263,-4.535 1.594,-9.16 5.553,-11.846c5.78,-3.92 12.687,-2.968 18.297,0.336"></path></g><g fill="#231f20" stroke="none" stroke-miterlimit="10"><path d="M181.656,154.433c-7.20578,3.72638 -15.05658,6.04317 -23.131,6.826c-0.869,0.084 -0.878,1.454 0,1.368c8.3146,-0.8004 16.39998,-3.18067 23.822,-7.013c0.783,-0.403 0.092,-1.585 -0.691,-1.181"></path></g><g fill="#231f20" stroke="none" stroke-miterlimit="10"><path d="M182.92,81.045c-6.39,-14.094 -23.003,-19.103 -37.272,-15.793c-12.532,2.906 -22.59,10.668 -31.527,19.58c-0.08473,-0.0046 -0.16957,0.00694 -0.25,0.034c-11.67,4.091 -22.03,10.962 -30.308,20.152c-0.016,0.017 -0.02,0.037 -0.033,0.056l-0.012,0.021c-0.22,0.314 -0.135,0.677 0.091,0.9c5.626,16.355 24.544,22.574 39.193,13.654c8.215,-5.001 14.253,-12.852 22.556,-17.726c8.121,-4.768 21.645,-5.878 25.856,4.752c0.043,0.105 0.104,0.19 0.173,0.257c0.156,0.443 0.706,0.736 1.087,0.28c6.068,-7.251 9.618,-15.979 10.333,-25.398c0.18951,-0.21039 0.23407,-0.51403 0.113,-0.77"></path></g><g fill="#fefefe" stroke="none" stroke-miterlimit="10"><path d="M172.15,105.45c-2.754,-5.768 -9.034,-8.668 -15.342,-8.558c-8.464,0.148 -15.642,5.773 -21.705,11.104c-7.773,6.834 -15.75,14.639 -26.825,14.597c-10.72,-0.041 -19.93,-6.984 -23.368,-17.01c7.513,-8.216 16.7,-14.529 27.05,-18.552c-3.077,3.188 -6.031,6.479 -8.917,9.715c-0.584,0.656 0.38,1.627 0.968,0.968c10.906,-12.228 22.55,-25.177 38.687,-30.236c14.343,-4.494 31.933,-0.675 38.825,13.815c-0.022,0.06 -0.048,0.119 -0.053,0.192c-0.606,8.816 -3.826,17.08 -9.32,23.965"></path></g><g fill="#231f20" stroke="none" stroke-miterlimit="10"><path d="M177.914,76.293c-0.74929,6.86391 -2.74571,13.5333 -5.891,19.68c-6.205,-3.537 -13.54,-4.732 -20.515,-2.963c-7.672,1.947 -13.73,7.362 -19.49,12.493c-6.88,6.126 -14.82,12.985 -24.681,12.414c-9.519,-0.553 -14.492,-8.994 -18.509,-16.527c-0.413,-0.779 -1.596,-0.088 -1.18,0.69c3.282,6.158 7.062,12.97 13.796,15.863c7.149,3.072 15.263,0.595 21.494,-3.411c7.488,-4.814 13.2,-11.906 20.772,-16.603c8.588,-5.328 18.875,-5.771 27.675,-0.74c-0.82779,1.5298 -1.72335,3.02194 -2.684,4.472c-0.487,0.737 0.697,1.422 1.182,0.69c5.21,-7.862 8.371,-16.684 9.4,-26.058c0.097,-0.874 -1.274,-0.867 -1.369,0"></path></g><g fill="#fefefe" stroke="none" stroke-miterlimit="10"><path d="M57.713,175.592l-0.023,-83.15c0.00549,-2.11882 1.72118,-3.83541 3.84,-3.842c2.1182,0.00659 3.83386,1.7218 3.841,3.84l0.023,83.15c-0.00604,2.11859 -1.72141,3.83486 -3.84,3.842c-2.1182,-0.00659 -3.83386,-1.7218 -3.841,-3.84"></path></g><g fill="#d2dde2" stroke="none" stroke-miterlimit="10"><path d="M65.371,92.439c0,-0.688 -0.187,-1.335 -0.507,-1.895c-2.195,-0.09 -4.407,-0.088 -6.586,-0.134c-0.38331,0.60777 -0.58714,1.31145 -0.588,2.03l0.003,13.232c2.575,-0.275 5.135,-0.645 7.682,-1.096z"></path></g><g fill="none" stroke="#231f20" stroke-miterlimit="20"><path d="M57.713,177.002l-0.023,-83.15c0.00549,-2.11882 1.72118,-3.83541 3.84,-3.842c2.1182,0.00659 3.83386,1.7218 3.841,3.84l0.023,83.15c-0.00604,2.11859 -1.72141,3.83486 -3.84,3.842c-2.1182,-0.00659 -3.83386,-1.7218 -3.841,-3.84z"></path></g><g fill="#231f20" stroke="none" stroke-miterlimit="10"><path d="M109.108,96.281h-95.137c-2.11843,-0.00604 -3.83441,-1.72157 -3.841,-3.84c0.00604,-2.11843 1.72157,-3.83441 3.84,-3.841h95.138c2.11843,0.00604 3.83441,1.72157 3.841,3.84c-0.00604,2.11843 -1.72157,3.83441 -3.84,3.841"></path></g><g fill="none" stroke="#231f20" stroke-miterlimit="20"><path d="M109.108,96.281h-95.137c-2.11843,-0.00604 -3.83441,-1.72157 -3.841,-3.84c0.00604,-2.11843 1.72157,-3.83441 3.84,-3.841h95.138c2.11843,0.00604 3.83441,1.72157 3.841,3.84c-0.00604,2.11843 -1.72157,3.83441 -3.84,3.841z"></path></g><g fill="#231f20" stroke="none" stroke-miterlimit="10"><path d="M61.543,176.3c-20.955,0 -37.943,2.73 -37.943,6.095h75.886c0,-3.366 -16.988,-6.095 -37.943,-6.095"></path></g><g fill="none" stroke="#231f20" stroke-miterlimit="20"><path d="M61.543,176.3c-20.955,0 -37.943,2.73 -37.943,6.095h75.886c0,-3.366 -16.988,-6.095 -37.943,-6.095z"></path></g><g fill="#231f20" stroke="none" stroke-miterlimit="10"><path d="M82.221,86.962l-0.708,-3.571c-0.03267,-0.14554 -0.11034,-0.2771 -0.222,-0.376c-0.14848,-0.1259 -0.32047,-0.22107 -0.506,-0.28c-0.301,-0.108 -0.66,-0.184 -1.101,-0.255c-1.315,-0.21 -3.355,-0.34 -5.634,-0.34h-54.332c-1.825,0 -3.467,0.085 -4.684,0.225c-0.61,0.071 -1.108,0.152 -1.503,0.26c-0.18973,0.04741 -0.37281,0.11829 -0.545,0.211c-0.10094,0.05377 -0.19165,0.12485 -0.268,0.21c-0.10633,0.11581 -0.16615,0.26679 -0.168,0.424l0.01,0.114l0.71,3.573c0.03241,0.14508 0.11017,0.27607 0.222,0.374c0.172,0.154 0.332,0.217 0.506,0.283c0.3,0.107 0.658,0.182 1.1,0.255c1.315,0.209 3.355,0.338 5.634,0.339h54.332c1.825,-0.001 3.467,-0.085 4.684,-0.225c0.61,-0.072 1.11,-0.153 1.503,-0.26c0.18993,-0.04779 0.37329,-0.11865 0.546,-0.211c0.087,-0.05 0.179,-0.112 0.267,-0.211c0.10653,-0.11576 0.16669,-0.2667 0.169,-0.424z"></path></g><g fill="#d2dde2" stroke="none" stroke-miterlimit="10"><path d="M75.067,87.24h-54.332c-1.8,0 -3.453,-0.086 -4.64,-0.22c-0.46004,-0.04493 -0.91668,-0.11976 -1.367,-0.224c-0.04957,-0.01268 -0.09861,-0.02736 -0.147,-0.044l-0.601,-3.03c0.14071,-0.03663 0.28282,-0.06765 0.426,-0.093c1.063,-0.191 3.054,-0.33 5.315,-0.329h54.332c1.799,0 3.454,0.085 4.641,0.22c0.592,0.066 1.071,0.146 1.365,0.223c0.06,0.015 0.106,0.03 0.147,0.043l0.602,3.032c-0.111,0.03 -0.257,0.062 -0.426,0.091c-1.063,0.193 -3.054,0.332 -5.315,0.331"></path></g><g stroke="none" stroke-miterlimit="10"><g fill="#000000" font-family="Inter, apple-system, &quot;system-ui&quot;, &quot;Helvetica Neue&quot;, &quot;Segoe UI&quot;, &quot;Fira Sans&quot;, Roboto, Oxygen, Ubuntu, &quot;Droid Sans&quot;, Arial, sans-serif" font-weight="400" font-size="16" text-anchor="start"></g><g clip-path="url(#clip-2)"><path d="M66.673,78.886l-7.548,-27.854c-0.491,-1.802 -1.613,-3.403 -3.03,-4.57c-1.418,-1.165 -3.146,-1.909 -4.9,-1.912h-46.255c-1.448,-0.003 -2.712,0.53 -3.586,1.443c-0.877,0.912 -1.357,2.18 -1.355,3.582c0,0.584 0.083,1.195 0.25,1.816l7.551,27.853c0.49,1.803 1.611,3.403 3.029,4.571c1.418,1.164 3.146,1.909 4.9,1.912h46.254c1.448,0.003 2.712,-0.53 3.586,-1.444c0.877,-0.911 1.356,-2.18 1.354,-3.581c0,-0.585 -0.082,-1.194 -0.25,-1.816" fill="#231f20"></path></g></g><g fill="#fefefe" stroke="none" stroke-miterlimit="10"><path d="M64.583,83.336c-0.611,0.632 -1.476,1.02 -2.598,1.024h-46.256c-1.353,0.002 -2.814,-0.599 -4.03,-1.6c-1.217,-1 -2.177,-2.388 -2.578,-3.873l-7.548,-27.854c-0.13164,-0.47493 -0.1999,-0.96518 -0.203,-1.458c0.002,-1.097 0.365,-1.998 0.973,-2.631c0.61,-0.633 1.476,-1.02 2.599,-1.024h46.254c1.354,-0.003 2.814,0.597 4.031,1.6c1.217,1 2.177,2.387 2.578,3.871l7.548,27.854c0.139,0.513 0.202,1.002 0.202,1.458c0,1.097 -0.364,1.999 -0.972,2.633"></path></g><g fill="#d2dde2" stroke="none" stroke-miterlimit="10"><path d="M61.706,83.393c-0.579,0.598 -1.397,0.964 -2.46,0.967h-43.8c-1.28,0.003 -2.664,-0.564 -3.815,-1.512c-1.154,-0.945 -2.063,-2.257 -2.441,-3.66l-7.147,-26.335c-0.12548,-0.44867 -0.19039,-0.91212 -0.193,-1.378c0,-1.037 0.346,-1.89 0.922,-2.49c0.578,-0.597 1.396,-0.963 2.46,-0.966h43.798c1.282,-0.003 2.665,0.564 3.817,1.512c1.153,0.945 2.062,2.257 2.44,3.66l7.148,26.334c0.131,0.484 0.192,0.946 0.192,1.378c0,1.037 -0.345,1.89 -0.921,2.49"></path></g></g></g></g></g></g></g></svg>