<svg version="1.1" xmlns="http://www.w3.org/2000/svg" xmlns:xlink="http://www.w3.org/1999/xlink" width="179" height="209" viewBox="0,0,219.25,256"><defs><clipPath id="clip-1"><path d="M0.21,78.51h150.408v129.664h-150.408z" id="clip-1" fill="none"></path></clipPath><clipPath id="clip-2"><path d="M141.37,179.06h37.53v18.606h-37.53z" id="clip-2" fill="none"></path></clipPath></defs><g fill="none" fill-rule="nonzero" stroke="none" stroke-width="1" stroke-linecap="butt" stroke-linejoin="miter" stroke-miterlimit="10" stroke-dasharray="" stroke-dashoffset="0" font-family="none" font-weight="none" font-size="none" text-anchor="none" style="mix-blend-mode: normal"><g transform="translate(-0.0022,0) scale(1.00002,1)"><g><g transform="translate(-0.00176,0.00004) scale(1.00002,1)"><g><g transform="translate(-0.06916,0.50595) scale(1.22488,1.22488)"><g><g><g fill-opacity="0" fill="#e6edf5"><path d="M111.088,23.151c-45.205,-13.281 -71.792,-11.296 -87.304,13.282c-15.514,24.578 -0.568,49.23 -11.072,75.567c-10.504,26.336 -20.206,74.086 33.203,85.38c53.41,11.296 85.587,2.848 113.07,-21.516c27.484,-24.364 16.465,-37.563 2.513,-71.535c-13.95,-33.973 -5.205,-67.895 -50.41,-81.177z"></path></g><g><g fill="#000000" font-family="Inter, apple-system, &quot;system-ui&quot;, &quot;Helvetica Neue&quot;, &quot;Segoe UI&quot;, &quot;Fira Sans&quot;, Roboto, Oxygen, Ubuntu, &quot;Droid Sans&quot;, Arial, sans-serif" font-weight="400" font-size="16" text-anchor="start"></g><g clip-path="url(#clip-1)"><path d="M148.474,159.408c-5.755,-15.661 -19.864,-24.206 -34.53,-30.305c-7.676,-3.194 -15.497,-6.239 -22.539,-10.724c-2.158,-1.374 -4.235,-2.884 -6.158,-4.574c-5.045,-4.43 -9.77,-10.344 -12.262,-16.624c-1.458,-3.675 -3.416,-6.89 -6.25,-9.696c-5.495,-5.44 -13.108,-8.64 -20.817,-8.95c-12.947,-0.52 -25.032,7.057 -32.71,17.055c-9.393,12.232 -12.552,28.127 -12.958,43.236c-0.412,15.344 2.266,31.253 10.873,44.242c8.327,12.566 20.708,19.53 35.354,22.234c17.466,3.223 35.754,3.506 53.41,1.972c13.562,-1.178 29.155,-2.724 40.032,-11.8c10.425,-8.696 13.134,-23.606 8.555,-36.066" fill="#231f20"></path></g></g><g fill="#fefefe"><path d="M117.618,203.703c-15.786,3.185 -32.387,3.73 -48.432,2.872c-15.07,-0.805 -31.974,-2.051 -44.652,-11.108c-11.872,-8.482 -18.841,-22.157 -21.564,-36.235c-2.867,-14.824 -2.176,-31.307 2.434,-45.71c4.749,-14.842 15.491,-28.576 31.102,-32.702c6.829,-1.805 14.268,-1.161 20.728,1.675c6.386,2.804 12.081,7.99 14.491,14.651c1.285,3.553 3.288,6.797 5.541,9.813c2.227,2.974 4.637,5.872 7.464,8.298c5.14,4.407 11.256,7.518 17.4,10.266c6.386,2.858 12.942,5.33 19.25,8.364c4.954,2.381 9.813,5.128 13.942,8.79c10.566,9.369 16.9,23.714 12.905,37.777c-4.019,14.14 -17.203,20.544 -30.609,23.248"></path></g><g fill="#d2dde2"><path d="M135.322,142.676c-4.13,-3.663 -8.989,-6.409 -13.942,-8.79c-6.308,-3.034 -12.864,-5.506 -19.25,-8.364c-6.144,-2.748 -12.26,-5.86 -17.4,-10.266c-2.827,-2.426 -5.237,-5.324 -7.463,-8.3c-2.254,-3.014 -4.257,-6.258 -5.541,-9.81c-0.243,-0.67 -0.527,-1.322 -0.833,-1.961c-2.666,-1.88 -5.536,-3.372 -8.62,-4.078c-4.266,-1.896 -9.058,-0.978 -12.822,1.827c-5.09,3.793 -7.22,10.063 -8.473,16.038c-2.837,13.524 -2.368,27.66 4.905,39.747c6.668,11.082 17.868,18.873 30.575,21.29c7.448,1.418 14.801,0.692 22.139,-0.982c4.882,-1.112 9.717,-2.486 14.617,-3.409c0.04,0.017 0.07,0.04 0.12,0.049c12.672,2.37 17.714,17.447 9.047,26.985c-7.978,8.781 -21.195,9.086 -32.19,9.373c-12.762,0.332 -25.345,-0.83 -37.852,-2.679c-0.09567,-0.18156 -0.28185,-0.2974 -0.487,-0.303c-0.91301,-0.04443 -1.82515,-0.10511 -2.736,-0.182c-4.28118,-0.67898 -8.55321,-1.41438 -12.815,-2.206c-6.85031,-1.79829 -13.41457,-4.5484 -19.501,-8.17c2.302,2.581 4.872,4.935 7.735,6.98c12.677,9.057 29.58,10.302 44.65,11.108c16.046,0.858 32.647,0.314 48.433,-2.872c13.406,-2.704 26.59,-9.107 30.608,-23.248c3.996,-14.063 -2.338,-28.408 -12.904,-37.777"></path></g><g fill="#231f20"><path d="M135.282,70.674c-0.013,-0.639 -0.13,-1.263 -0.414,-1.828c-0.63,-1.249 -1.945,-1.969 -3.273,-1.716c-0.174,-0.608 -0.448,-1.173 -0.854,-1.645c-0.702,-0.816 -1.784,-1.11 -2.7,-0.776c1.262,-3.464 2.194,-7.859 -0.705,-8.732c-1.681,-0.507 -2.842,1.073 -3.387,2.413c-1.27,3.12 -2.094,6.505 -3.12,9.714c-0.04145,0.12317 -0.03647,0.25724 0.014,0.377c-0.96826,0.59769 -1.75005,1.45429 -2.257,2.473c-1.168,2.323 -0.741,4.93 0.356,7.18c-3.448,7.606 -8.238,14.962 -15.897,18.847c-7.743,3.928 -17.787,3.066 -23.082,-4.397c-0.06539,-0.09439 -0.15625,-0.16826 -0.262,-0.213c-0.208,-0.342 -0.77,-0.483 -1.05,-0.036c-4.212,6.764 -6.568,15.142 -3.056,22.734c3.465,7.49 11.62,10.003 19.351,9.707c16.915,-0.644 30.523,-13.854 32.407,-30.455l1.635,-7.553c0.381,-1.765 0.637,-2.714 2.025,-3.871c0.99,-0.827 1.88,-1.536 2.7,-2.56c0.008,-0.01 0.013,-0.021 0.021,-0.032c0.65321,-0.24316 1.24854,-0.61985 1.748,-1.106c2.217,-2.148 3.785,-7.459 -0.2,-8.525"></path></g><g fill="#fefefe"><path d="M131.372,71.639c0.334,-0.983 0.52,-2.174 0.43,-3.318c2.62,-0.651 2.326,3.329 1.786,4.855c-0.355,1 -0.884,2.024 -1.82,2.603c-1.106,0.685 -2.506,0.476 -3.008,-0.655c1.289,-0.676 2.172,-2.187 2.612,-3.485"></path></g><g fill="#fefefe"><path d="M130.505,67.898c0.182,0.879 0.104,1.952 -0.116,2.816c-0.18806,0.771 -0.51507,1.50126 -0.965,2.155l-0.558,0.672c-0.726,0.836 -1.553,0.787 -2.48,-0.124c0.82,-0.277 1.44,-0.877 1.537,-2.01c0.102,-1.195 -0.599,-2.17 -1.553,-2.816c0.002,-0.004 0.006,-0.006 0.007,-0.01c0.23,-0.462 0.586,-1.208 0.969,-2.108c0.181,0.064 0.385,0.028 0.547,-0.18c1.531,-1.96 2.47,0.918 2.612,1.605"></path></g><g fill="#fefefe"><path d="M123.57,63.498c0.438,-1.368 0.977,-3.405 1.54,-4.703c0.541,-1.24 2.318,-2.026 2.776,0.357c0.04,0.213 -0.037,0.43 -0.055,0.645c0.077,0.776 -0.348,2.21 -0.55,3.025c-0.446,1.794 -1.116,3.49 -1.941,5.141c-0.013,0.025 -0.011,0.047 -0.02,0.07c-0.34826,-0.13429 -0.71055,-0.22889 -1.08,-0.282c-0.6963,-0.09458 -1.40466,-0.04316 -2.08,0.151l1.41,-4.404"></path></g><g fill="#fefefe"><path d="M77.278,115.702c-4.05,-7.125 -1.945,-15.412 1.992,-22.052c4.077,5.36 10.685,7.56 17.127,6.703l0.89,22.854c0.002,0.07 0.025,0.127 0.045,0.185c-0.14,0.015 -0.279,0.038 -0.418,0.05c-7.299,0.728 -15.723,-0.852 -19.636,-7.74"></path></g><g fill="#fefefe"><path d="M131.043,81.342c-0.57,0.46 -1.768,0.836 -2.21,1.37c-1.872,2.265 -1.818,7.812 -2.376,10.584c-1.606,7.974 -4.094,15.082 -9.986,20.901c-4.875,4.818 -11.214,8.017 -17.98,9.037c0,-0.013 0.007,-0.022 0.006,-0.036l-0.897,-23.057c1.10553,-0.21 2.19238,-0.50863 3.25,-0.893c9.421,-3.45 15.305,-11.96 19.256,-20.762c0.08987,-0.19607 0.06933,-0.42505 -0.054,-0.602c0.01501,-0.11412 -0.0034,-0.23014 -0.053,-0.334c-1.2,-2.446 -1.373,-5.555 0.785,-7.55c1.007,-0.929 2.483,-1.322 3.81,-0.952c0.943,0.261 3.7,1.962 1.05,3.372c-0.657,0.35 -2.046,-0.17 -2.69,-0.375c-0.742,-0.237 -1.06,0.928 -0.321,1.164c0.67,0.213 1.529,0.39 2.36,0.399c0.276,1.17 1.332,1.956 2.597,1.854c0.3475,0.94381 1.15047,1.6466 2.132,1.866c-0.261,1.215 0.267,2.447 1.525,2.977c0.23191,0.09494 0.4748,0.16045 0.723,0.195c-0.284,0.291 -0.583,0.566 -0.927,0.842"></path></g><g fill="#fefefe"><path d="M135.775,76.868c-0.443,0.746 -1.03,1.511 -1.772,1.986c-1.016,0.653 -4.014,0.688 -3.057,-1.502v-0.002c1.7,-0.273 2.91,-1.694 3.56,-3.216c0.286,-0.664 0.532,-1.426 0.669,-2.204c1.933,0.793 1.534,3.364 0.6,4.938"></path></g><g fill="#231f20"><path d="M96.04,149.607c-1.072,-3.395 -2.89,-6.486 -4.44,-9.672c-2.384,-4.907 -3.495,-9.943 -3.939,-15.364c-0.724,-8.834 -0.1,-18.185 -4.035,-26.394c-1.43,-2.98 -3.568,-5.628 -6.222,-7.604c-3.925,-2.925 -8.725,-4.636 -13.532,-5.398c-1.47973,-0.22581 -2.98906,-0.16538 -4.446,0.178c-2.972,0.685 -5.678,2.417 -7.647,4.732c-4.635,5.449 -5.94,13.24 -6.78,20.115c-1.943,15.871 0.523,33.876 8.692,47.845c3.614,6.178 8.86,10.017 16.006,11.043c6.735,0.966 15.044,1.092 21.008,-2.656c5.98,-3.759 7.389,-10.319 5.335,-16.825"></path></g><g fill="#fefefe"><path d="M94.688,160.519c-3.43,6.908 -12.103,7.895 -18.924,7.794c-7.068,-0.107 -13.828,-1.496 -18.525,-7.198c-4.304,-5.227 -6.719,-12.196 -8.542,-18.622c-1.94044,-6.84792 -2.98085,-13.91938 -3.095,-21.036c-0.12,-7.571 0.621,-15.467 2.953,-22.703c1.852,-5.748 6.969,-13.272 13.87,-12.67c2.133,0.185 4.206,0.816 6.209,1.55c1.865,0.683 3.833,1.319 5.6,2.23c11.03,5.69 11.401,19.509 11.942,30.285c0.317,6.335 0.9,12.634 3.486,18.502c2.919,6.623 8.737,14.391 5.026,21.868"></path></g><g><g fill="#000000" font-family="Inter, apple-system, &quot;system-ui&quot;, &quot;Helvetica Neue&quot;, &quot;Segoe UI&quot;, &quot;Fira Sans&quot;, Roboto, Oxygen, Ubuntu, &quot;Droid Sans&quot;, Arial, sans-serif" font-weight="400" font-size="16" text-anchor="start"></g><g clip-path="url(#clip-2)"><path d="M169.055,180.826c-8.171,-3.202 -17.262,-1.945 -24.487,2.922c-0.345,0.233 -0.328,0.64 -0.14,0.902c-1.992,2.8 -4.086,6.304 -2.499,9.78c1.284,2.81 4.283,3.302 7.073,3.229c4.892,-0.127 9.85,-0.862 14.669,-1.682c4.02,-0.682 9.353,-1.071 12.937,-3.177c7.05,-4.144 -4.092,-10.617 -7.553,-11.974" fill="#231f20"></path></g></g><g fill="#fefefe"><path d="M176.825,191.163c-0.484,0.805 -2.224,1.204 -2.976,1.426c-6.246,1.85 -12.977,2.78 -19.436,3.432c-2.671,0.27 -5.953,0.943 -8.596,0.184c-5.991,-1.722 -2.272,-8.288 -0.067,-11.342c0.125,-0.174 0.134,-0.346 0.075,-0.49c5.175,-3.286 11.263,-4.79 17.379,-3.864c3.12596,0.46975 6.13564,1.52341 8.872,3.106c1.24,0.72 2.808,1.56 3.722,2.671c0.696,0.844 1.608,3.91 1.027,4.877"></path></g><g fill="#231f20"><path d="M142.043,132.828c-17.873,-8.936 -37.933,-1.242 -54.973,5.758c-0.605,0.249 -0.466,1.133 0.034,1.204c-1.258,4.973 1.93,9.69 6.454,11.746c6.877,3.124 14.525,0.677 21.726,1.346c16.718,1.554 25.54,17.904 30.552,32.03c-0.36,0.319 -0.24,1.067 0.376,1.06c6.105,-0.058 11.876,-1.7 17.093,-4.869c0.013,-0.007 0.018,-0.018 0.03,-0.026c0.05526,-0.03461 0.10345,-0.07941 0.142,-0.132c0.01,-0.013 0.02,-0.025 0.028,-0.04c0.04488,-0.07622 0.07158,-0.16178 0.078,-0.25c0.001,-0.021 0.012,-0.037 0.011,-0.06c-0.313,-17.793 -3.91,-38.945 -21.551,-47.767"></path></g><g fill="#639cdc"><path d="M147.049,184.733c-4.236,-12.012 -10.367,-24.477 -22.346,-30.364c-6.113,-3.005 -12.178,-2.852 -18.822,-2.505c-3.695,0.193 -7.569,0.249 -11.077,-1.104c-4.47,-1.724 -7.935,-6.182 -6.425,-11.1c0.0317,-0.10207 0.03309,-0.21115 0.004,-0.314c16.214,-6.643 35.1,-13.813 52.162,-5.9c17.824,8.268 21.48,29.156 21.833,46.803c-4.731,2.806 -9.851,4.296 -15.329,4.484"></path></g><g fill="#231f20"><path d="M157.015,187.626c-8.171,-3.202 -17.261,-1.945 -24.487,2.922c-0.345,0.232 -0.328,0.64 -0.14,0.902c-1.992,2.8 -4.086,6.304 -2.499,9.779c1.284,2.81 4.283,3.303 7.073,3.23c4.892,-0.127 9.85,-0.863 14.669,-1.682c4.02,-0.682 9.353,-1.071 12.937,-3.177c7.05,-4.144 -4.092,-10.618 -7.553,-11.974"></path></g><g fill="#fefefe"><path d="M164.785,197.963c-0.484,0.805 -2.224,1.203 -2.976,1.426c-6.246,1.85 -12.977,2.78 -19.436,3.432c-2.671,0.27 -5.953,0.943 -8.596,0.184c-5.991,-1.721 -2.272,-8.288 -0.067,-11.342c0.125,-0.175 0.134,-0.346 0.075,-0.492c5.175,-3.285 11.263,-4.788 17.379,-3.862c3.12599,0.46904 6.13574,1.52239 8.872,3.105c1.24,0.72 2.808,1.561 3.722,2.671c0.696,0.846 1.608,3.912 1.027,4.878"></path></g><g fill="#231f20"><path d="M154.136,186.054c0.27,-2.273 -0.808,-5.096 -1.068,-7.25c-0.41,-3.393 -0.847,-6.784 -1.45,-10.149c-1.19,-6.638 -3.072,-13.206 -6.482,-19.068c-2.808,-4.826 -6.713,-9.17 -11.532,-12.061c-13.267,-8.249 -28.535,-4.6 -42.244,1.107c-0.51,-0.686 -1.908,-3.38 -2.876,-3.394c-0.172,-0.003 -0.339,0.063 -0.498,0.13c-6.101,2.579 -11.896,5.791 -18.094,8.208c-5.31469,2.07006 -10.72557,3.88415 -16.214,5.436c-0.894,0.253 -1.893,0.406 -2.752,0.754c-1.184,0.48 -0.583,2.014 -0.301,2.9c2.25,7.08 6.65,13.026 13.417,16.328c8.135,3.969 17.58,3.884 26.239,1.915c4.994,-1.136 9.819,-2.894 14.564,-4.802c4.7,-1.888 10.615,-4.695 15.39,-1.54c4.272,2.822 6.001,9.475 7.354,14.067c0.92,3.12 1.61,6.304 2.081,9.522c0.24765,1.69464 0.43676,3.39732 0.567,5.105c0.125,1.625 -0.146,2.847 1.869,2.984c2.496,0.169 5.08,-0.55 7.465,-1.194c2.69,-0.727 5.287,-1.8 7.71,-3.176c1.24475,-0.70582 2.4438,-1.48937 3.59,-2.346c0.935,-0.702 2.726,-1.435 3.095,-2.645c0.08,-0.266 0.136,-0.544 0.17,-0.83"></path></g><g fill="#639cdc"><path d="M124.579,167.756c-5.021,-8.586 -13.524,-5.402 -21.075,-2.407c-10.113,4.01 -21.211,7.278 -32.133,4.885c-9.744,-2.134 -18.292,-9.183 -19.721,-19.426c12.70416,-3.40219 24.99469,-8.19411 36.649,-14.289l1.921,2.59c-3.552,1.516 -6.993,3.151 -10.256,4.736c-0.699,0.339 -0.087,1.38 0.609,1.042c15.717,-7.63 35.723,-16.703 52.421,-6.323c15.956,9.919 18.194,30.56 19.675,47.505c0.01,0.116 0.052,0.209 0.106,0.29c-5.83,5.415 -13.277,8.436 -21.225,8.626c-0.48,-9.134 -2.31,-19.26 -6.971,-27.229"></path></g><g fill="#231f20"><path d="M138.835,134.226c0.633,0.03 1.286,0.013 1.769,-0.26c0.565,-0.321 0.92,-1.387 1.04,-1.987c0.166,-0.83 0.208,-2.15 -0.822,-2.291c-1.97,-0.269 -4.123,-0.137 -6.118,-0.198c-4.296,-0.133 -8.593,-0.213 -12.89,-0.307c-1.63143,-0.03486 -3.26277,-0.07386 -4.894,-0.117l-11.45,-0.306c-2.87236,-0.07573 -5.74469,-0.1524 -8.617,-0.23c-0.61,-0.016 -1.928,-0.298 -2.463,0.062c-0.841,0.567 -0.895,1.54 -0.59,2.43c0.273,0.796 0.71,1.688 1.464,2.164c0.974,0.613 2.23,0.232 3.306,0.252l4.417,0.083c2.946,0.056 5.891,0.11 8.837,0.167l17.673,0.332l4.949,0.092c1.095,0.022 2.191,0.047 3.287,0.058c0.328,0.003 0.711,0.039 1.102,0.056"></path></g><g fill="#fefefe"><path d="M116.123,132.56c-3.64,-0.069 -7.281,-0.148 -10.923,-0.219c-1.838,-0.035 -3.679,-0.07 -5.519,-0.099l-2.7,-0.04c-0.733,-0.009 -1.445,-0.181 -1.79,-0.884c-0.157,-0.32 -0.336,-0.846 -0.32,-1.201c0.043,-0.866 3.505,-0.34 4.102,-0.324l5.896,0.157l11.792,0.315c4.027,0.108 8.053,0.222 12.08,0.333c3.04152,0.08468 6.08319,0.16368 9.125,0.237c0.579,0.014 2.816,-0.438 2.66,0.577c-0.076,0.491 -0.137,1.227 -0.616,1.512c-0.586,0.348 -1.431,0.15 -2.067,0.092c-0.9,-0.083 -1.81,-0.073 -2.715,-0.094c-2.14,-0.048 -4.28,-0.092 -6.42,-0.133c-4.195,-0.08 -8.39,-0.15 -12.585,-0.229"></path></g><g fill="#231f20"><path d="M152.505,96.486c-0.206,-0.096 -0.44,-0.123 -0.667,-0.147c-8.18,-0.826 -16.326,-1.957 -24.47,-3.085c-1.073,-0.148 -2.91,-0.793 -3.894,-0.06c-0.753,0.56 -0.663,1.723 -0.806,2.55c-0.235,1.357 -0.447,2.719 -0.67,4.077c-0.449,2.717 -0.896,5.434 -1.343,8.15c-0.88344,5.35806 -1.75911,10.7174 -2.627,16.078c-0.4,2.469 -1.007,5.326 1.49,6.888c2.735,1.71 7.415,1.003 10.435,1.106c3.899,0.133 8.425,0.954 12.267,0.11c2.965,-0.652 4.435,-2.837 5.162,-5.649c1.3,-5.031 2.299,-10.135 3.213,-15.247c0.45,-2.522 0.88,-5.048 1.316,-7.572c0.218,-1.26 0.437,-2.522 0.66,-3.782c0.152,-0.849 1.06,-2.804 -0.009,-3.388l-0.057,-0.029"></path></g><g fill="#fefefe"><path d="M143.68,130.182c-2.957,1.922 -8.083,0.845 -11.453,0.731c-3.427,-0.116 -7.455,0.315 -10.79,-0.532c-4.512,-1.143 -1.639,-9.726 -1.1,-13.01c0.613,-3.748 1.278,-7.5 1.914,-11.24c0.512,-3.007 0.726,-6.084 1.067,-9.114c0.131,-1.173 0.387,-2.505 1.664,-2.932c0.802,-0.268 1.677,-0.051 2.5,0.148c3.594,0.87 7.281,1.225 10.942,1.71c2.892,0.383 5.805,0.562 8.696,0.948c1.39,0.185 3.624,-0.396 4.482,1.15c0.81,1.457 -0.333,3.547 -0.66,4.997c-1.271,5.622 -2.37,11.264 -3.49,16.92c-0.63,3.264 -0.744,8.255 -3.772,10.224"></path></g><g fill="#d2dde2"><path d="M151.607,98.04c-0.859,-1.546 -3.093,-0.965 -4.482,-1.15c-2.891,-0.385 -5.805,-0.565 -8.696,-0.948c-3.661,-0.485 -7.348,-0.84 -10.943,-1.709c-0.328,-0.08 -0.662,-0.16 -0.997,-0.213c-2.375,10.22 -4.05,20.614 -4.839,31.08c-0.2,2.663 0.165,4.446 1.756,5.625c2.88,0.347 6.048,0.093 8.825,0.187c3.37,0.115 8.497,1.191 11.453,-0.73c3.029,-1.97 3.143,-6.96 3.773,-10.225c1.12,-5.655 2.218,-11.298 3.489,-16.92c0.328,-1.45 1.47,-3.54 0.66,-4.997"></path></g><g fill="#231f20"><path d="M113.077,116.142c-0.739,-4.028 -6.074,-5.707 -9.618,-5.605c-2.28,0.064 -4.628,0.673 -6.703,1.597c-3.763,1.677 -6.521,4.797 -9.21,7.805c-2.484,2.781 -5.315,5.47 -9.296,5.418c-5.96,-0.076 -6.715,-6.278 -7.826,-10.823c-1.168,-4.783 -2.106,-9.704 -3.606,-14.395c-0.964,-3.017 -2.392,-5.928 -4.978,-7.871c-5.505,-4.136 -11.798,-0.394 -14.281,5.211c-3.228,7.287 -2.617,16.121 0.182,23.44c2.933,11.5 7.663,26.623 21.362,28.758c14.031,2.186 23.353,-11.049 29.858,-21.31c0.014,-0.02 0.014,-0.039 0.024,-0.059c0.10397,-0.0523 0.20511,-0.11005 0.303,-0.173c0.039,0.191 0.157,0.369 0.393,0.448c1.949,0.652 3.867,-0.7 4.206,-2.673c0.008,-0.045 0.01,-0.088 0.015,-0.134c0.028,0 0.052,0.01 0.08,0.005c2.153,-0.301 2.666,-1.837 2.4,-3.626c0.425,0.54 0.917,0.992 1.652,1.118c1.02,0.175 1.846,-0.487 2.06,-1.465c0.28,-1.28 -0.521,-2.743 -1.131,-3.82c-0.085,-0.15 -0.187,-0.288 -0.277,-0.433c0.887,0.563 1.733,1.22 2.862,1.018c1.152,-0.206 1.73,-1.333 1.529,-2.431"></path></g><g fill="#fefefe"><path d="M47.306,115.2c-0.5125,-2.43044 -0.73405,-4.91322 -0.66,-7.396c0.146,-4.609 1.114,-10.291 4.543,-13.68c4.236,-4.187 9.967,-2.378 12.78,2.38c2.283,3.864 2.948,8.77 4,13.073c0.741,3.032 1.246,6.348 2.175,9.421c-5.84773,4.12391 -12.14059,7.57727 -18.76,10.295c-0.01,0.004 -0.02,0.01 -0.03,0.016c-1.69279,-4.5976 -3.04576,-9.31327 -4.048,-14.109"></path></g><g fill="#fefefe"><path d="M111.88,116.887c-0.38,0.774 -1.346,0.405 -1.878,0.118c-0.848,-0.459 -1.429,-1.048 -2.402,-1.27c-0.09303,-0.02064 -0.18959,-0.01927 -0.282,0.004c-0.53288,-0.58956 -1.11389,-1.13377 -1.737,-1.627c-0.602,-0.477 -1.463,0.372 -0.853,0.854c1.416,1.118 2.604,2.46 3.43,4.074c0.182,0.354 0.414,0.867 0.547,1.235c0.185,0.51 0.548,1.414 -0.089,1.58c-0.066,0.016 -0.549,0.279 -1.27,-0.362c-0.47,-0.418 -0.853,-0.92 -1.225,-1.424c-0.38,-0.513 -0.715,-1.055 -1.066,-1.587c-0.11791,-0.17876 -0.23392,-0.35877 -0.348,-0.54c-0.064,-0.102 -0.155,-0.35 -0.25,-0.42c-0.32746,-0.52723 -0.71727,-1.01306 -1.161,-1.447c-0.562,-0.536 -1.417,0.316 -0.854,0.854c1.23,1.173 4.826,6.886 1.464,7.642c-0.27,-1.906 -1.776,-3.467 -3.24,-4.665c-0.596,-0.488 -1.455,0.362 -0.853,0.853c1.032,0.846 2.07,1.747 2.595,3.005c0.71,1.693 -0.06,4.39 -2.352,3.67c0.225,-0.285 0.405,-0.609 0.528,-0.963c0.256,-0.736 -0.91,-1.053 -1.164,-0.322c-0.3,0.864 -1.224,1.06 -1.697,1.815c-6.024,9.636 -15.813,23.736 -29.208,20.386c-7.08,-1.475 -11.774,-6.838 -14.722,-13.15c-0.72871,-1.56368 -1.40344,-3.15195 -2.023,-4.762c6.61564,-2.71008 12.91069,-6.14469 18.77,-10.241c0.201,0.573 0.416,1.139 0.66,1.685c1.031,2.313 2.79,3.962 5.3,4.5c7.255,1.558 11.276,-5.55 15.767,-9.773c4.831,-4.543 13.108,-7.302 18.45,-2.007c0.468,0.465 1.528,1.542 1.163,2.285"></path></g><g fill="#231f20"><path d="M94.134,76.33c-1.59,-1.996 -5.51,-2.17 -7.35,-0.64c-1.856,1.538 -2.403,4.304 -0.975,6.304c1.478,2.074 4.327,2.555 6.48,1.273c1.924,-1.146 3.185,-4.045 2.289,-6.19c-0.1123,-0.26856 -0.26176,-0.52001 -0.444,-0.747"></path></g><g fill="#fefefe"><path d="M92.457,81.612c-1.456,1.442 -3.82,1.597 -5.302,0.105c-1.366,-1.376 -1.197,-3.555 0.156,-4.885c0.762,-0.75 1.817,-1.083 2.875,-1.013c3.125,0.208 4.698,3.39 2.271,5.793"></path></g><g fill="#231f20"><path d="M97.102,58.469c-1.105,-7.028 -6.489,-12.176 -13.486,-13.253c-6.874,-1.058 -13.469,2.265 -17.604,7.688c-5.692,7.467 -5.698,17.381 -2.498,25.876c-0.43,3.632 -3.397,6.855 -1.968,10.618c1.064,2.802 3.782,4.38 6.4,5.481c2.23,0.938 5.927,2.656 7.794,0.128c0.72,-0.976 0.718,-2.341 0.849,-3.486c0.197,-1.731 0.386,-3.464 0.575,-5.196c5.386,1.787 11.21,-1.246 14.487,-5.853c4.221,-5.935 6.588,-14.783 5.451,-22.003"></path></g><g fill="#fefefe"><path d="M94.592,71.19c-1.635,5.37 -5.1,11.757 -10.58,13.98c-1.09639,0.45193 -2.27324,0.67614 -3.459,0.659c-0.803,-0.018 -1.58,-0.22 -2.35,-0.427c-0.861,-0.23 -1.664,-0.698 -2.002,0.42c-0.663,2.186 -0.099,4.551 -0.946,6.748c-1.692,4.387 -6.823,1.588 -9.454,-0.097c-2.938,-1.884 -4.043,-4.701 -2.895,-7.99c0.601,-1.726 1.28,-3.386 1.77,-5.15c0.056,-0.196 0.11,-0.395 0.1,-0.599c-0.044,-0.746 -0.619,-1.696 -0.841,-2.43c-0.273,-0.9 -0.509,-1.813 -0.705,-2.734c-0.39367,-1.83402 -0.61529,-3.70079 -0.662,-5.576c-0.084,-3.703 0.585,-7.437 2.195,-10.788c0.70988,-1.47759 1.59273,-2.86564 2.63,-4.135c5.223,-6.39 14.167,-8.99 21.578,-4.742c8.233,4.719 8.063,14.839 5.62,22.86"></path></g><g fill="#d2dde2"><path d="M88.98,48.329c-7.41,-4.249 -16.354,-1.649 -21.579,4.741c-1.0372,1.26977 -1.92004,2.65814 -2.63,4.136c-1.61,3.35 -2.278,7.084 -2.194,10.788c0.01,0.417 0.031,0.833 0.06,1.25c1.608,0.63 3.314,1.061 4.995,1.382c0.048,0.395 0.453,0.747 0.883,0.47c5.49245,-3.52318 10.14486,-8.2087 13.629,-13.726c4.592,2.291 9.15,4.78 13.823,6.913c0.537,-6.252 -1.007,-12.528 -6.987,-15.955"></path></g><g fill="#d2dde2"><path d="M77.628,85.232l-3.501,-1.59c-0.965,-0.438 -2.821,-1.748 -3.964,-1.284c-1.975,0.803 -0.568,4.612 0.09,5.856c1.002,1.893 2.888,3.704 5.051,4.218c0.77,-2.158 0.253,-4.466 0.901,-6.607c0.261,-0.859 0.797,-0.78 1.423,-0.593"></path></g><g fill="#231f20"><path d="M100.477,55.465l2.168,-2.808c0.857,-1.11 2.582,-2.625 2.475,-4.18c-0.157,-2.29 -3.072,-1.976 -5.146,-1.416c1.217,-1.526 2.859,-3.77 1.161,-4.903c-0.937,-0.627 -2.358,-0.346 -3.388,-0.218c-1.01766,0.1317 -2.02295,0.34573 -3.006,0.64c1.189,-1.936 2.726,-4.816 0.648,-5.552c-1.224,-0.434 -2.977,0.533 -4.051,0.966c-1.2704,0.51336 -2.50631,1.10826 -3.7,1.781c0.92,-1.935 1.73,-4.428 -0.964,-4.212c-1.743,0.14 -3.772,1.31 -5.328,2.068c-1.905,0.928 -3.699,2.039 -5.417,3.27l-0.432,-3.278c-0.06,-0.45 -0.656,-0.883 -1.03,-0.427c-4.7,5.723 -10.59,10.922 -13.219,18.035c-2.347,6.35 -1.174,13.319 2.887,18.687c0.243,0.32 0.644,0.306 0.906,0.133c0.07816,-0.01716 0.15222,-0.04943 0.218,-0.095c7.002,-4.855 12.111,-11.7 14.766,-19.779c5.98149,1.37146 11.63261,3.91257 16.628,7.477c0.043,0.03 0.085,0.053 0.126,0.07c0.17,0.16 0.417,0.227 0.677,0.062l4.866,-3.06c0.795,-0.5 2.625,-1.164 2.763,-2.276c0.23,-1.853 -2.696,-1.4 -4.608,-0.985"></path></g><g fill="#231f20"><path d="M102.2,57.377c-1.68,1.055 -3.358,2.111 -5.037,3.167c-5.15558,-3.6609 -10.99248,-6.25157 -17.166,-7.619c-0.09685,-0.02135 -0.19746,-0.0186 -0.293,0.008c-0.271,-0.038 -0.565,0.071 -0.67,0.405c-2.484,7.924 -7.425,14.69 -14.22,19.454c-3.96,-5.588 -4.656,-12.606 -1.715,-18.865c2.678,-5.702 7.337,-10.126 11.379,-14.874l0.369,2.8c-0.128,0.488 0.35,1.07 0.843,0.699c1.97,-1.48 4.046,-2.8 6.265,-3.88c1.07,-0.52 2.435,-1.364 3.634,-1.527l0.776,-0.265c0.583,0.775 0.661,1.497 0.236,2.165c-0.168,0.64 -0.673,1.395 -0.954,1.976c-0.304,0.63 0.512,1.18 0.922,0.767c0.026,-0.013 0.05,-0.013 0.076,-0.028c1.967,-1.234 4.03,-2.284 6.22,-3.062c0.267,-0.096 0.953,-0.464 1.226,-0.407c1.545,0.323 0.675,1.432 0.366,2.013l-1.634,3.081c-0.018,0.032 -0.038,0.062 -0.05,0.095l-0.003,0.006c-0.347,0.654 0.576,1.224 0.98,0.685c1.747,-0.638 3.565,-1.078 5.431,-1.152c0.621,-0.025 0.648,-0.126 1,0.504c0.4,0.717 0.111,0.812 -0.304,1.422c-0.592,0.868 -1.196,1.73 -1.794,2.594c-0.10711,0.13883 -0.13368,0.32362 -0.07,0.487c-0.106,0.423 0.187,0.93 0.691,0.726c1.043,-0.425 2.595,-1.058 3.747,-0.835c2.52,0.487 0.299,2.643 -0.38,3.523l-4.448,5.76c-0.474,0.615 0.573,1.217 1.043,0.61l0.666,-0.864c0.01,-0.002 0.016,0.001 0.025,0c1.038,-0.162 2.075,-0.33 3.114,-0.486c2.176,-0.329 0.602,0.368 -0.271,0.917"></path></g><g fill="#231f20"><path d="M67.094,70.147c-1.563,-2.017 -5.509,-2.17 -7.351,-0.641c-1.855,1.539 -2.401,4.305 -0.975,6.305c1.479,2.074 3.979,2.908 6.132,1.625c1.923,-1.146 2.91,-4.233 2.638,-6.543c-0.017,-0.139 -0.18,-0.405 -0.444,-0.746"></path></g><g fill="#fefefe"><path d="M67.832,76.1c-1.456,1.442 -6.235,0.93 -7.717,-0.563c-1.366,-1.376 -1.197,-3.554 0.156,-4.884c0.763,-0.751 1.842,-1.253 2.875,-1.012c4.046,0.94 7.112,4.055 4.686,6.459"></path></g><g fill="#231f20"><path d="M83.382,69.571c-0.88,0.04 -2,0.992 -1.614,2.18c0.505,1.555 2.225,0.565 2.488,-0.601c0.263,-1.165 -0.243,-1.607 -0.874,-1.579"></path></g><g fill="#231f20"><path d="M91.062,71.781c-0.879,0.04 -2,0.992 -1.614,2.18c0.505,1.555 2.225,0.565 2.488,-0.602c0.263,-1.164 -0.243,-1.606 -0.874,-1.578"></path></g><g fill="#231f20"><path d="M88.18,71.851c-0.264,1.107 -0.83,3.823 -2.192,4.02c-0.767,0.112 -0.44,1.275 0.32,1.165c1.944,-0.283 2.66,-3.29 3.037,-4.863c0.18,-0.755 -0.983,-1.078 -1.164,-0.322"></path></g><g fill="#231f20"><path d="M84.366,77.376c-0.383,-0.498 -1.183,-0.94 -1.497,-1.13c-0.84,-0.515 -1.955,-1.418 -2.885,-0.698c-1.345,1.042 -1.577,3.73 -0.044,4.733c0.984,0.643 2.158,0.423 3.069,-0.238c0.64,-0.465 2.015,-1.814 1.357,-2.667"></path></g><g fill="#231f20"><path d="M82.949,179c-7.146,-13.75 -20.773,-23.406 -36.126,-25.553c-0.24143,-0.0356 -0.48194,0.07008 -0.619,0.272c-0.299,-0.101 -0.681,-0.011 -0.82,0.37c-3.518,9.747 1.603,19.761 10.031,24.995c4.639,2.882 10.041,4.306 15.454,4.735c4.027,0.318 10.315,0.88 11.755,-3.969c0.298,-0.132 0.519,-0.475 0.325,-0.85"></path></g><g fill="#fefefe"><path d="M83.54,190.468c-3.985,-0.87 -31.107,-5.409 -34.426,-7.8c-7.095,-5.114 -5.4,-34.78 -2.636,-28.063c0.007,0.001 0.01,0.005 0.017,0.006c14.884,2.08 29.037,12.002 36.124,25.239c-0.046,0.06 4.862,11.48 0.921,10.618"></path></g><g fill="#231f20"><path d="M113.008,166.19c-14.396,-5.739 -31.021,-4.144 -44.044,4.265c-0.20557,0.13096 -0.31821,0.3679 -0.29,0.61c-0.292,0.118 -0.525,0.437 -0.38,0.815c3.705,9.678 14.127,13.912 23.926,12.366c5.395,-0.851 10.416,-3.303 14.792,-6.515c3.257,-2.39 8.384,-6.075 6.305,-10.687c0.14,-0.294 0.083,-0.698 -0.309,-0.854"></path></g><g fill="#fefefe"><path d="M120.963,174.48c-3.585,1.945 -27.081,16.233 -31.156,16.593c-8.712,0.766 -26.817,-22.798 -20.334,-19.519c0.006,-0.004 0.011,-0.003 0.017,-0.007c12.627,-8.151 29.822,-9.89 43.836,-4.502c0.005,0.075 11.182,5.512 7.637,7.436"></path></g><g fill="#231f20"><path d="M128.39,13.02c-4.339,-1.794 -9.848,-0.374 -12.659,3.429c-3.484,4.714 -2.026,10.92 0.232,15.824c0.234,0.98 0.23,1.954 0.018,2.929c-0.723,-0.119 -1.494,0.279 -1.78,0.968c-0.14901,0.37525 -0.15186,0.79274 -0.008,1.17c-0.32955,0.15059 -0.59397,0.41465 -0.745,0.744c-0.167,0.383 -0.147,0.814 0.01,1.187c-0.288,0.28 -0.481,0.658 -0.505,1.067c-0.03,0.5 0.175,0.939 0.51,1.26c0.03551,0.13712 0.11662,0.25809 0.23,0.343c0.16,0.12 0.325,0.225 0.487,0.335c-0.577,2.73 1.962,5.183 4.677,4.115c0.824,-0.325 2.182,-1.362 1.909,-2.413c0.123,-0.01 0.245,-0.012 0.37,-0.026c1.24,0.159 2.309,-0.779 2.238,-1.992c0.666,-0.44 0.89,-1.398 0.447,-2.08c0.642,-0.703 0.797,-1.83 0.192,-2.624c-0.013,-0.02 -0.033,-0.031 -0.048,-0.049c0.48913,-0.82183 1.15612,-1.52368 1.952,-2.054c4.648,-1.317 8.515,-5.095 9.215,-10.01c0.697,-4.903 -2.115,-10.21 -6.741,-12.123"></path></g><g fill="#d2dde2"><path d="M122.764,39.212c-0.277,0.163 -0.327,0.435 -0.253,0.673c-0.03,0.19 0.007,0.389 0.157,0.511c0.307,0.248 0.212,0.562 -0.175,0.622c-0.323,0.048 -0.501,0.454 -0.422,0.741c0.01921,0.05986 0.04791,0.11624 0.085,0.167c0.066,0.4 -0.186,0.818 -0.594,0.859c-0.10288,-0.04447 -0.21594,-0.06003 -0.327,-0.045c-2.309,0.34 -4.518,-0.217 -6.421,-1.495c-0.05103,-0.18597 -0.18889,-0.33575 -0.37,-0.402c-0.413,-0.158 -0.323,-0.546 -0.063,-0.747c0.277,0.03 0.51,-0.14 0.622,-0.365c0.012,-0.02 0.017,-0.044 0.026,-0.067c0.01698,-0.04325 0.02938,-0.08816 0.037,-0.134v-0.056c0.00262,-0.05297 -0.00346,-0.106 -0.018,-0.157c-0.05073,-0.23712 -0.22794,-0.42702 -0.461,-0.494c-0.133,-0.238 0.106,-0.525 0.463,-0.384c0.259,0.103 0.556,-0.066 0.688,-0.296c0.035,-0.035 0.073,-0.065 0.1,-0.111c0.153,-0.261 0.08,-0.687 -0.216,-0.826c-0.508,-0.236 -0.342,-0.838 0.126,-0.815c0.03077,0.06801 0.07344,0.12999 0.126,0.183c1.977,1.988 4.684,2.515 7.238,1.542c0.152,0.396 0.053,0.858 -0.348,1.096"></path></g><g fill="#639cdc"><path d="M133.907,25.051c-0.327,2.164 -1.363,4.166 -2.884,5.732c-0.7544,0.77302 -1.61101,1.4392 -2.546,1.98c-1.781,1.038 -3.669,1.132 -4.904,2.965c-0.23,0.34 -0.476,1.114 -0.887,1.277c-1.982,0.782 -4.066,0.398 -5.655,-1.002c-0.288,-0.261 0.27,-1.552 0.308,-1.904c0.266,-2.51 -1.395,-4.673 -1.981,-7.014c-0.773,-3.083 -0.802,-6.458 0.891,-9.254c2.335,-3.856 7.591,-5.39 11.688,-3.672c4.174,1.752 6.639,6.463 5.97,10.892"></path></g><g fill="#231f20"><path d="M125.588,26.961c-0.454,-0.691 -1.345,-0.956 -2.134,-0.835c-0.797,0.123 -1.418,0.616 -1.952,1.189c-0.483,-1.038 -1.466,-1.943 -2.603,-1.08c-1.532,1.164 -0.18,3.479 0.328,4.82c0.021,0.055 0.055,0.093 0.085,0.137l-1.007,5.886c-0.132,0.76 1.032,1.087 1.164,0.321l1.083,-6.333c0.04787,-0.25222 -0.06518,-0.50776 -0.284,-0.642c-0.273,-0.681 -0.583,-1.371 -0.766,-2.073c-0.097,-0.373 -0.218,-1.702 0.663,-1.052c0.335,0.249 0.388,0.825 0.456,1.202c0.063,0.35 0.34,0.464 0.61,0.419c0.195,0.09 0.424,0.069 0.607,-0.153c0.508,-0.619 1.598,-2.012 2.548,-1.32c0.532,0.387 0.171,1.027 -0.276,1.314c-0.5,0.32 -1.167,0.346 -1.738,0.388c-0.388,0.03 -0.581,0.35 -0.578,0.655l-1.562,7.331c-0.162,0.758 1.002,1.083 1.164,0.322l1.524,-7.15c0.821,-0.085 1.654,-0.264 2.26,-0.86c0.654,-0.644 0.939,-1.677 0.408,-2.486"></path></g><g fill="#231f20"><path d="M109.158,12.91l-3.485,-4.188c-0.497,-0.597 -1.348,0.26 -0.854,0.855l3.485,4.186c0.498,0.598 1.348,-0.26 0.854,-0.853"></path></g><g fill="#231f20"><path d="M124.277,0.58l-0.365,5.479c-0.052,0.775 1.155,0.771 1.207,0l0.366,-5.479c0.05,-0.775 -1.157,-0.772 -1.208,0"></path></g><g fill="#231f20"><path d="M145.889,10.203c-1.706,1.46 -3.413,2.916 -5.12,4.375c-0.591,0.506 0.266,1.356 0.854,0.854l5.119,-4.375c0.591,-0.506 -0.265,-1.356 -0.853,-0.854"></path></g></g></g></g></g></g></g></g></g></svg>